HIERARCHY
ROOT Hips
{
	OFFSET 0.000000 1.471914 24.280096
	CHANNELS 6 Xposition Yposition Zposition Xrotation Yrotation Zrotation
	JOINT Spine
	{
		OFFSET 0.000000 0.900110 1.860670
		CHANNELS 6 Xposition Yposition Zposition Xrotation Yrotation Zrotation
		JOINT Spine1
		{
			OFFSET 0.000000 0.400320 2.270309
			CHANNELS 6 Xposition Yposition Zposition Xrotation Yrotation Zrotation
			JOINT Spine2
			{
				OFFSET 0.000000 0.200920 2.296560
				CHANNELS 6 Xposition Yposition Zposition Xrotation Yrotation Zrotation
				JOINT Spine3
				{
					OFFSET 0.000000 0.000000 2.305330
					CHANNELS 6 Xposition Yposition Zposition Xrotation Yrotation Zrotation
					JOINT Neck
					{
						OFFSET 0.000000 -0.864490 6.051487
						CHANNELS 6 Xposition Yposition Zposition Xrotation Yrotation Zrotation
						JOINT Head
						{
							OFFSET 0.000000 -0.550429 3.121674
							CHANNELS 6 Xposition Yposition Zposition Xrotation Yrotation Zrotation
							End Site
							{
								OFFSET 0.000000 0.000000 3.731750
							}
						}
					}
					JOINT RightShoulder
					{
						OFFSET -0.788280 -1.313800 4.256718
						CHANNELS 6 Xposition Yposition Zposition Xrotation Yrotation Zrotation
						JOINT RightArm
						{
							OFFSET -3.915130 0.000000 0.000000
							CHANNELS 6 Xposition Yposition Zposition Xrotation Yrotation Zrotation
							JOINT RightForeArm
							{
								OFFSET -6.914910 0.000000 0.000000
								CHANNELS 6 Xposition Yposition Zposition Xrotation Yrotation Zrotation
								JOINT RightHand
								{
									OFFSET -6.096219 0.000000 0.000000
									CHANNELS 6 Xposition Yposition Zposition Xrotation Yrotation Zrotation
									JOINT RightHandEnd
									{
										OFFSET -1.749950 0.000000 0.000000
										CHANNELS 6 Xposition Yposition Zposition Xrotation Yrotation Zrotation
										End Site
										{
											OFFSET -1.749950 0.000000 0.000000
										}
									}
									JOINT RightHandThumb1
									{
										OFFSET -0.699980 -1.166630 -0.466648
										CHANNELS 6 Xposition Yposition Zposition Xrotation Yrotation Zrotation
										End Site
										{
											OFFSET -1.690319 -0.452920 0.000000
										}
									}
								}
							}
						}
					}
					JOINT LeftShoulder
					{
						OFFSET 0.788280 -1.313800 4.256718
						CHANNELS 6 Xposition Yposition Zposition Xrotation Yrotation Zrotation
						JOINT LeftArm
						{
							OFFSET 3.915130 0.000000 0.000000
							CHANNELS 6 Xposition Yposition Zposition Xrotation Yrotation Zrotation
							JOINT LeftForeArm
							{
								OFFSET 6.914910 0.000000 0.000000
								CHANNELS 6 Xposition Yposition Zposition Xrotation Yrotation Zrotation
								JOINT LeftHand
								{
									OFFSET 6.096219 0.000000 0.000000
									CHANNELS 6 Xposition Yposition Zposition Xrotation Yrotation Zrotation
									JOINT LeftHandEnd
									{
										OFFSET 1.749950 0.000000 0.000000
										CHANNELS 6 Xposition Yposition Zposition Xrotation Yrotation Zrotation
										End Site
										{
											OFFSET 1.749950 0.000000 0.000000
										}
									}
									JOINT LeftHandThumb1
									{
										OFFSET 0.699980 -1.166630 -0.466648
										CHANNELS 6 Xposition Yposition Zposition Xrotation Yrotation Zrotation
										End Site
										{
											OFFSET 1.690319 -0.452920 0.000000
										}
									}
								}
							}
						}
					}
				}
			}
		}
	}
	JOINT RightUpLeg
	{
		OFFSET -2.338570 -0.252550 -0.551512
		CHANNELS 6 Xposition Yposition Zposition Xrotation Yrotation Zrotation
		JOINT RightLeg
		{
			OFFSET 0.000000 0.000000 -10.744959
			CHANNELS 6 Xposition Yposition Zposition Xrotation Yrotation Zrotation
			JOINT RightFoot
			{
				OFFSET 0.000000 -0.000001 -10.930849
				CHANNELS 6 Xposition Yposition Zposition Xrotation Yrotation Zrotation
				JOINT RightToeBase
				{
					OFFSET 0.000000 -4.087269 -1.487650
					CHANNELS 6 Xposition Yposition Zposition Xrotation Yrotation Zrotation
					End Site
					{
						OFFSET 0.000000 -1.891870 0.000000
					}
				}
			}
		}
	}
	JOINT LeftUpLeg
	{
		OFFSET 2.338570 -0.252550 -0.551512
		CHANNELS 6 Xposition Yposition Zposition Xrotation Yrotation Zrotation
		JOINT LeftLeg
		{
			OFFSET 0.000000 0.000000 -10.744959
			CHANNELS 6 Xposition Yposition Zposition Xrotation Yrotation Zrotation
			JOINT LeftFoot
			{
				OFFSET 0.000000 -0.000001 -10.930849
				CHANNELS 6 Xposition Yposition Zposition Xrotation Yrotation Zrotation
				JOINT LeftToeBase
				{
					OFFSET 0.000000 -4.087269 -1.487650
					CHANNELS 6 Xposition Yposition Zposition Xrotation Yrotation Zrotation
					End Site
					{
						OFFSET 0.000000 -1.891870 0.000000
					}
				}
			}
		}
	}
}
MOTION
Frames: 4
Frame Time: 0.041667
0.000128 26.645790 40.811943 -7.113162 7.098188 -42.497055 0.000005 0.900086 1.860696 21.165727 5.908969 -0.791021 -0.000015 0.400287 2.270299 0.000006 0.000001 0.000016 0.000007 0.200881 2.296545 -0.000003 -0.000002 0.000004 0.000026 0.000031 2.305346 -0.000045 0.000003 -0.038108 -0.000019 -0.864435 6.051368 13.254645 -2.256207 -166.939153 0.000041 -0.550405 3.121673 -0.000006 -0.000002 -0.000007 -0.788276 -1.313709 4.256847 -120.610212 55.020350 -57.663872 -3.915142 -0.000025 -0.000023 0.000001 -0.000009 0.000002 -6.914847 -0.000008 0.000034 0.000002 0.000019 -30.037765 -6.096194 -0.000007 0.000014 -0.000026 -0.000005 0.000001 -1.749899 -0.000007 0.000034 -0.000002 0.000003 -0.000002 -0.699961 -1.166614 -0.466649 -0.000032 -0.000010 -0.000034 0.788246 -1.313776 4.256782 -129.635365 -52.420814 47.913637 3.915224 -0.000014 -0.000023 -0.000001 0.000003 0.000004 6.914946 -0.000076 0.000022 -0.000002 0.000000 27.177150 6.096282 0.000172 -0.000037 0.000007 -0.000022 0.000022 1.750006 0.000026 0.000052 -0.000008 -0.000006 -0.000002 0.700002 -1.166587 -0.466644 0.000047 -0.000008 -0.000045 -2.338583 -0.252530 -0.551460 20.457115 -0.220063 -0.759082 0.000017 -0.000007 -10.744944 12.375551 -1.796776 -0.482805 -0.000025 0.000072 -10.930841 0.000046 -0.000005 0.000006 -0.000034 -4.087235 -1.487615 0.000005 0.000002 -0.000001 2.338602 -0.252518 -0.551512 19.238997 2.542218 -0.725273 -0.000010 -0.000014 -10.744933 9.452178 -0.000226 0.075120 0.000024 -0.000011 -10.930869 0.000024 -0.000005 0.000004 -0.000055 -4.087207 -1.487658 0.000003 -0.000002 -0.000007 
0.000124 26.645792 40.811943 -6.864868 7.174332 -43.074277 0.000001 0.900087 1.860704 20.923468 5.660289 -0.788310 -0.000016 0.400282 2.270298 0.000006 0.000002 0.000018 0.000006 0.200881 2.296556 -0.000002 -0.000001 0.000008 0.000026 0.000038 2.305342 -0.000050 0.000000 -0.008542 -0.000020 -0.864430 6.051376 13.282670 -2.311894 -166.924086 0.000043 -0.550407 3.121673 -0.000010 -0.000003 -0.000009 -0.788274 -1.313705 4.256852 -120.039892 55.103207 -58.097275 -3.915140 -0.000020 -0.000023 0.000002 -0.000008 -0.000000 -6.914849 -0.000003 0.000034 0.000001 0.000019 -30.199941 -6.096189 -0.000006 0.000015 -0.000024 -0.000004 0.000001 -1.749897 -0.000010 0.000027 -0.000001 0.000005 0.000001 -0.699951 -1.166613 -0.466648 -0.000032 -0.000006 -0.000036 0.788247 -1.313771 4.256789 -129.988527 -52.498955 47.498146 3.915223 -0.000014 -0.000031 0.000000 0.000003 0.000001 6.914936 -0.000078 0.000019 -0.000001 -0.000001 26.649714 6.096280 0.000171 -0.000034 0.000004 -0.000020 0.000024 1.750005 0.000027 0.000059 -0.000006 -0.000003 -0.000004 0.700001 -1.166585 -0.466641 0.000050 -0.000007 -0.000046 -2.338585 -0.252530 -0.551463 20.342967 -0.297346 -0.761078 0.000013 -0.000011 -10.744946 12.386607 -1.704941 -0.503642 -0.000029 0.000077 -10.930840 0.000050 -0.000005 0.000007 -0.000033 -4.087239 -1.487615 0.000005 0.000001 -0.000002 2.338599 -0.252518 -0.551511 19.160928 2.569776 -0.728086 -0.000009 -0.000017 -10.744934 9.300629 0.059170 0.075583 0.000027 -0.000017 -10.930869 0.000020 -0.000009 0.000005 -0.000056 -4.087206 -1.487656 -0.000003 -0.000003 -0.000004 
0.000122 26.645794 40.811943 -6.737029 7.229712 -43.791433 0.000005 0.900084 1.860698 20.808019 5.678657 -0.834357 -0.000017 0.400287 2.270301 0.000006 0.000001 0.000016 0.000006 0.200881 2.296556 -0.000003 -0.000002 0.000002 0.000028 0.000034 2.305338 -0.000049 -0.000000 -0.181321 -0.000019 -0.864429 6.051373 13.353360 -2.334175 -167.630437 0.000041 -0.550412 3.121670 -0.000008 -0.000001 -0.000009 -0.788275 -1.313705 4.256850 -119.737041 55.199608 -58.320936 -3.915139 -0.000023 -0.000023 0.000000 -0.000007 0.000000 -6.914855 -0.000010 0.000030 -0.000001 0.000018 -30.300290 -6.096193 -0.000006 0.000010 -0.000022 -0.000007 0.000002 -1.749898 -0.000012 0.000035 -0.000005 0.000002 0.000002 -0.699959 -1.166615 -0.466644 -0.000037 -0.000010 -0.000034 0.788245 -1.313770 4.256785 -131.051468 -52.864162 46.380225 3.915228 -0.000012 -0.000027 -0.000001 0.000004 0.000001 6.914937 -0.000078 0.000019 0.000002 -0.000003 26.343186 6.096272 0.000173 -0.000031 0.000004 -0.000020 0.000023 1.750003 0.000025 0.000060 -0.000011 -0.000007 -0.000003 0.699997 -1.166590 -0.466637 0.000048 -0.000009 -0.000044 -2.338583 -0.252531 -0.551464 20.236986 -0.318901 -0.806313 0.000014 -0.000012 -10.744943 12.249523 -1.219165 -0.531032 -0.000030 0.000074 -10.930840 0.000050 -0.000006 0.000008 -0.000035 -4.087242 -1.487616 0.000011 -0.000002 -0.000001 2.338603 -0.252519 -0.551515 19.099751 2.708806 -0.772126 -0.000011 -0.000018 -10.744935 9.257772 0.138630 0.075988 0.000027 -0.000016 -10.930867 0.000024 -0.000007 0.000004 -0.000058 -4.087204 -1.487654 0.000003 -0.000001 -0.000008 
0.000120 26.645790 40.811928 -6.408768 7.349911 -44.531385 0.000005 0.900083 1.860702 20.543879 5.483883 -0.788840 -0.000018 0.400285 2.270303 0.000007 0.000002 0.000017 0.000004 0.200882 2.296555 -0.000001 -0.000002 0.000005 0.000021 0.000035 2.305346 -0.000051 -0.000002 -0.385870 -0.000020 -0.864428 6.051383 13.677716 -2.268816 -167.854467 0.000040 -0.550413 3.121685 -0.000006 0.000000 -0.000008 -0.788275 -1.313704 4.256857 -118.646970 53.535446 -59.218894 -3.915138 -0.000023 -0.000023 0.000001 -0.000008 0.000003 -6.914847 -0.000004 0.000030 0.000002 0.000022 -29.964395 -6.096185 -0.000009 0.000014 -0.000023 -0.000007 0.000002 -1.749898 -0.000009 0.000039 0.000001 0.000004 0.000000 -0.699962 -1.166614 -0.466644 -0.000032 -0.000008 -0.000034 0.788243 -1.313772 4.256797 -130.941242 -52.792725 46.218032 3.915229 -0.000014 -0.000027 -0.000001 0.000004 0.000001 6.914946 -0.000077 0.000012 -0.000000 -0.000007 25.785907 6.096274 0.000172 -0.000038 0.000002 -0.000022 0.000025 1.750007 0.000029 0.000055 -0.000008 -0.000007 0.000002 0.700006 -1.166584 -0.466638 0.000048 -0.000010 -0.000042 -2.338584 -0.252533 -0.551459 20.029945 -0.511532 -0.764027 0.000018 -0.000016 -10.744943 12.163220 -0.723709 -0.548455 -0.000025 0.000073 -10.930839 0.000044 -0.000004 0.000003 -0.000037 -4.087242 -1.487615 0.000006 0.000000 0.000003 2.338602 -0.252521 -0.551511 18.976589 2.739781 -0.734701 -0.000012 -0.000016 -10.744931 9.389022 0.092685 0.097365 0.000024 -0.000014 -10.930867 0.000022 -0.000009 0.000008 -0.000061 -4.087204 -1.487656 -0.000002 -0.000002 -0.000004 
